<svg class="lds-gear" width="200px" height="200px" xmlns="http://www.w3.org/2000/svg" viewBox="0 0 100 100"
     preserveAspectRatio="xMidYMid" style="background: none;">
  <g transform="translate(50 50)">
    <g transform="rotate(35.9266)">
      <animateTransform attributeName="transform" type="rotate" values="0;360" keyTimes="0;1" dur="1s"
                        repeatCount="indefinite"></animateTransform>
      <path d="M18.540496217739157 -7.5 L28.540496217739157 -7.5 L28.540496217739157 7.5 L18.540496217739157 7.5 A20 20 0 0 1 15.76543863725287 12.306540723331409 L15.76543863725287 12.306540723331409 L20.76543863725287 20.966794761175795 L7.7750575804862905 28.466794761175798 L2.7750575804862896 19.806540723331413 A20 20 0 0 1 -2.7750575804862834 19.806540723331413 L-2.7750575804862834 19.806540723331413 L-7.775057580486281 28.4667947611758 L-20.76543863725286 20.966794761175805 L-15.765438637252863 12.306540723331418 A20 20 0 0 1 -18.540496217739157 7.499999999999999 L-18.540496217739157 7.499999999999999 L-28.540496217739157 7.5 L-28.54049621773916 -7.499999999999994 L-18.54049621773916 -7.499999999999995 A20 20 0 0 1 -15.76543863725287 -12.306540723331407 L-15.76543863725287 -12.306540723331407 L-20.765438637252874 -20.96679476117579 L-7.775057580486305 -28.466794761175795 L-2.7750575804863016 -19.80654072333141 A20 20 0 0 1 2.7750575804862763 -19.806540723331413 L2.7750575804862763 -19.806540723331413 L7.775057580486269 -28.466794761175805 L20.76543863725285 -20.96679476117582 L15.765438637252856 -12.306540723331427 A20 20 0 0 1 18.540496217739157 -7.500000000000001 M0 -10A10 10 0 1 0 0 10 A10 10 0 1 0 0 -10"
            fill="#b0c4de"></path>
    </g>
  </g>
</svg>